# xmcd CD database file
#
# Track frame offsets:
#	150
#	23289
#	44207
#	72202
#	89791
#	119438
#	138679
#	160099
#	178573
#	194557
#	208329
#
# Disc length: 2980 seconds
#
# Revision: 0
# Processed by: cddbd v1.5.2PL0 Copyright (c) Steve Scherf et al.
# Submitted via: CDex 1.81
#
DISCID=a80ba20b
DTITLE=Foolish Ska Jazz Orchestra - Tribute
DYEAR=2015
DGENRE=Jazz
TTITLE0=Moanin'
TTITLE1=All about that bass
TTITLE2=Speak no evil - Bemsha swing
TTITLE3=I'm in the mood for love
TTITLE4=Nostalgia in time square - Serenity
TTITLE5=Epistrophy
TTITLE6=Voyage
TTITLE7=All or nothing at all
TTITLE8=Is you is or is you ain't my baby
TTITLE9=In walked Bud
TTITLE10=Softly as in a morning sunrise
EXTD=YEAR: 2015
EXTT0=
EXTT1=
EXTT2=
EXTT3=
EXTT4=
EXTT5=
EXTT6=
EXTT7=
EXTT8=
EXTT9=
EXTT10=
PLAYORDER=
